<?xml version="1.0" encoding="UTF-8"?>
<svg version="1.1" xmlns="http://www.w3.org/2000/svg" width="1250" height="802">
<path d="M0 0 C412.5 0 825 0 1250 0 C1250 264.66 1250 529.32 1250 802 C837.5 802 425 802 0 802 C0 537.34 0 272.68 0 0 Z " fill="#FEFEFE" transform="translate(0,0)"/>
<path d="M0 0 C1.01196442 -0.01476883 2.02392883 -0.02953766 3.06655884 -0.04475403 C5.1995662 -0.0632786 7.33284019 -0.06122786 9.46582031 -0.03979492 C12.7137904 -0.01961062 15.94871656 -0.10055589 19.1953125 -0.18945312 C35.17915658 -0.34776562 35.17915658 -0.34776562 39.63745117 3.45678711 C41.9313197 6.24877192 43.64857976 8.98853933 45.3515625 12.16796875 C46.32140006 13.43104493 47.31896235 14.67384567 48.35546875 15.8828125 C64.3515625 35.93905837 64.3515625 35.93905837 64.3515625 40.16796875 C67.3215625 41.15796875 70.2915625 42.14796875 73.3515625 43.16796875 C73.1865625 42.19859375 73.0215625 41.22921875 72.8515625 40.23046875 C72.67591546 38.87743761 72.51011642 37.52310926 72.3515625 36.16796875 C72.2484375 35.41128906 72.1453125 34.65460938 72.0390625 33.875 C71.58010764 28.16674887 71.58010764 28.16674887 73.59765625 25.5546875 C80.28348465 20.32028605 89.12278805 19.42813398 97.3515625 20.16796875 C102.88486238 21.38717042 108.27671479 23.09312104 112.3515625 27.16796875 C112.57861328 30.10131836 112.57861328 30.10131836 112.546875 33.8203125 C112.5440451 34.47624893 112.54121521 35.13218536 112.53829956 35.80799866 C112.52709825 37.90734017 112.50201914 40.00625636 112.4765625 42.10546875 C112.46653042 43.51626982 112.45740497 44.92707764 112.44921875 46.33789062 C112.42642625 49.94803506 112.38897206 53.55794601 112.3515625 57.16796875 C112.3515625 60.22210041 112.41535277 63.27244966 112.47981262 66.32577515 C112.54632606 69.8110794 112.58727597 73.29651716 112.6262207 76.78222656 C112.65140148 78.61928602 112.68554849 80.45624495 112.72875977 82.29296875 C112.78953052 84.94686316 112.81778784 87.59944235 112.83984375 90.25390625 C112.86565018 91.07176605 112.8914566 91.88962585 112.91804504 92.73226929 C112.92016952 97.06806169 112.76152096 98.65682302 109.94995117 102.16235352 C107.65731146 103.93197066 106.09208453 104.94035857 103.3515625 105.73046875 C100.58323606 106.64463625 99.19244105 107.29526591 96.8515625 109.16796875 C89.29048121 115.21683378 80.64483964 114.93902668 71.3515625 114.16796875 C67.17924455 113.20512615 63.9263227 111.55114222 60.3515625 109.16796875 C58.00549421 108.89737586 55.64789963 108.7201175 53.2890625 108.60546875 C46.54444425 108.26440962 46.54444425 108.26440962 44.3515625 107.16796875 C42.51484315 107.25369226 40.68114456 107.40677004 38.8515625 107.58984375 C31.12809347 108.24833533 23.45064508 108.38882869 15.70410156 108.40820312 C13.35446375 108.41795671 11.00568606 108.44912988 8.65625 108.48046875 C-9.1643793 108.60455643 -26.27179279 104.6613989 -39.76171875 92.21875 C-47.21403352 84.09620563 -50.00935418 76.21470597 -49.8515625 65.30078125 C-48.52869538 44.89809985 -32.39413599 25.48560395 -19.24383545 11.01797485 C-17.61191292 9.1840863 -17.61191292 9.1840863 -16.19934082 7.1282959 C-11.46879442 0.81343328 -7.69141735 -0.05413321 0 0 Z " fill="#F18C60" transform="translate(248.6484375,372.83203125)"/>
<path d="M0 0 C6.6 0 13.2 0 20 0 C20 33.99 20 67.98 20 103 C13.73 103 7.46 103 1 103 C0.505 99.04 0.505 99.04 0 95 C-0.680625 96.0828125 -0.680625 96.0828125 -1.375 97.1875 C-6.85218911 103.05591691 -12.70361316 105.22551428 -20.62719727 105.64697266 C-29.17755073 105.79301224 -35.33189294 104.76114231 -42 99 C-42.65226563 98.47019531 -43.30453125 97.94039063 -43.9765625 97.39453125 C-51.84050964 90.35044243 -55.72043085 80.14296174 -56.37109375 69.73828125 C-56.71118147 57.38176089 -54.75499212 46.56874684 -46.671875 36.71484375 C-41.32326765 31.22877219 -35.81326644 27.28956757 -28.0390625 26.69921875 C-26.56777462 26.68471681 -25.0963453 26.6810693 -23.625 26.6875 C-22.89539063 26.67138672 -22.16578125 26.65527344 -21.4140625 26.63867188 C-12.3583823 26.63058645 -8.00296198 29.99746116 -1 36 C-0.67 24.12 -0.34 12.24 0 0 Z " fill="#F18A5D" transform="translate(659,348)"/>
<path d="M0 0 C4.22222487 4.43874922 6.23499013 8.17029932 6.30297852 14.30004883 C6.31962051 15.35827347 6.33626251 16.41649811 6.35340881 17.50679016 C6.36182297 18.64536972 6.37023712 19.78394928 6.37890625 20.95703125 C6.39590073 22.13335617 6.4128952 23.30968109 6.43040466 24.52165222 C6.48355354 28.28521338 6.52381256 32.04876459 6.5625 35.8125 C6.60653364 39.56546527 6.65337784 43.31834826 6.70530701 47.07121277 C6.73706425 49.40620245 6.7640149 51.74126379 6.78553772 54.07637024 C6.79902756 55.14405136 6.8125174 56.21173248 6.82641602 57.31176758 C6.83592789 58.24346268 6.84543976 59.17515778 6.85523987 60.13508606 C7.0222952 63.44123917 7.53184285 66.72289995 8 70 C1.07 70 -5.86 70 -13 70 C-13.33 68.35 -13.66 66.7 -14 65 C-15.24716797 65.63228516 -15.24716797 65.63228516 -16.51953125 66.27734375 C-17.60621094 66.82519531 -18.69289063 67.37304688 -19.8125 67.9375 C-20.89144531 68.48277344 -21.97039063 69.02804687 -23.08203125 69.58984375 C-28.49344703 72.20499917 -32.91836053 72.21629513 -38.8125 72.25 C-39.70259766 72.270625 -40.59269531 72.29125 -41.50976562 72.3125 C-48.22624379 72.35233086 -52.46261275 71.23531734 -57.625 66.6875 C-62.5954386 61.06305633 -64.70196193 57.02351391 -65.25 49.625 C-64.75248067 42.41096976 -61.36560861 36.69439333 -56 32 C-49.00077466 28.23376184 -41.53168639 27.01936787 -33.75 25.9375 C-24.46550672 24.7210794 -24.46550672 24.7210794 -16 21 C-15.91868537 19.56344146 -15.86066441 18.1255517 -15.8125 16.6875 C-15.77769531 15.88699219 -15.74289062 15.08648437 -15.70703125 14.26171875 C-16.06652968 11.48639088 -16.81736529 10.68706064 -19 9 C-24.52101125 7.15966292 -31.48681749 7.09097654 -36.9375 9.0625 C-39.7393376 11.43555486 -39.7393376 11.43555486 -42 18 C-48.6 18 -55.2 18 -62 18 C-62 12.99852013 -61.97103025 11.18843928 -60 7 C-59.34 7 -58.68 7 -58 7 C-57.79375 6.443125 -57.5875 5.88625 -57.375 5.3125 C-53.52189806 -1.1677169 -46.92810727 -3.84552762 -40 -6 C-26.51602798 -8.8183712 -11.47301837 -8.16484743 0 0 Z " fill="#F18B5F" transform="translate(584,381)"/>
<path d="M0 0 C3.53006742 3.20768683 5.83845064 6.47932237 6.15148926 11.3637085 C6.16401733 12.29523743 6.17654541 13.22676636 6.18945312 14.18652344 C6.20617065 15.24482361 6.22288818 16.30312378 6.2401123 17.39349365 C6.25368774 18.5372345 6.26726318 19.68097534 6.28125 20.859375 C6.29965942 22.03711487 6.31806885 23.21485474 6.33703613 24.42828369 C6.39585528 28.20213774 6.4486111 31.9760379 6.5 35.75 C6.56782624 40.70321693 6.64157846 45.65629591 6.71875 50.609375 C6.73232544 51.74501892 6.74590088 52.88066284 6.7598877 54.05072021 C6.77660522 55.12162903 6.79332275 56.19253784 6.81054688 57.29589844 C6.82307495 58.23060974 6.83560303 59.16532104 6.84851074 60.12835693 C7.02303297 63.43661499 7.5314911 66.72043771 8 70 C1.4 70 -5.2 70 -12 70 C-12.66 68.02 -13.32 66.04 -14 64 C-14.58007812 64.40992188 -15.16015625 64.81984375 -15.7578125 65.2421875 C-16.53898438 65.78101563 -17.32015625 66.31984375 -18.125 66.875 C-18.89070312 67.40867187 -19.65640625 67.94234375 -20.4453125 68.4921875 C-28.84401562 73.44922023 -39.69527809 73.26094438 -49.0859375 71.3828125 C-55.28188662 69.22852865 -59.36428664 65.41465568 -63 60 C-65.09459207 53.7162238 -65.1958848 45.69059057 -62.5 39.5625 C-58.59540721 33.09125181 -52.40139553 29.55529474 -45.25 27.64453125 C-39.91590281 26.58668746 -34.52830297 25.84275409 -29.13183594 25.17700195 C-24.1926171 24.52446288 -20.37076219 23.57103658 -16 21 C-15.91868537 19.56344146 -15.86066441 18.1255517 -15.8125 16.6875 C-15.77769531 15.88699219 -15.74289062 15.08648437 -15.70703125 14.26171875 C-16.06687495 11.48372541 -16.83241353 10.70572785 -19 9 C-23.84635457 6.57682271 -30.49356327 7.54268885 -35.5 9.0625 C-38.79561604 11.2930079 -38.79561604 11.2930079 -41 18 C-47.93 18 -54.86 18 -62 18 C-62 10.49487397 -58.35911688 5.52370643 -53.3125 0.125 C-37.48179939 -10.03054379 -15.81146555 -9.94329277 0 0 Z " fill="#F18B5E" transform="translate(891,381)"/>
<path d="M0 0 C7.46478287 5.99999529 12.25300195 14.27462467 14.0703125 23.6640625 C14.0703125 28.2840625 14.0703125 32.9040625 14.0703125 37.6640625 C-3.7496875 37.6640625 -21.5696875 37.6640625 -39.9296875 37.6640625 C-37.70064019 48.30759722 -37.70064019 48.30759722 -30.7421875 54.9765625 C-23.5556924 56.7332613 -16.59213642 55.91501649 -9.9296875 52.6640625 C-7.52772312 50.65504621 -6.95095386 49.72786157 -5.9296875 46.6640625 C0.3403125 46.6640625 6.6103125 46.6640625 13.0703125 46.6640625 C11.81939775 50.41680674 10.56965359 54.02280558 9.0703125 57.6640625 C8.4103125 57.6640625 7.7503125 57.6640625 7.0703125 57.6640625 C6.80605469 58.26089844 6.54179688 58.85773438 6.26953125 59.47265625 C3.06167158 65.33457571 -2.82729157 68.51692319 -8.9296875 70.6640625 C-18.37166049 73.07984658 -30.94215938 73.32584484 -39.76171875 68.984375 C-49.85568081 62.83706117 -56.73848144 55.28899194 -59.9296875 43.6640625 C-61.87916088 30.63768138 -60.71986722 18.22544809 -53.14453125 7.24121094 C-40.27071237 -9.4719864 -16.6542502 -11.77983551 0 0 Z " fill="#F18B5E" transform="translate(751.9296875,381.3359375)"/>
<path d="M0 0 C7.26 0 14.52 0 22 0 C22.80824219 2.43632812 23.61648438 4.87265625 24.44921875 7.3828125 C25.2498692 9.79260532 26.05105774 12.20221862 26.85229492 14.61181641 C27.40070661 16.26202099 27.94857564 17.91240603 28.49584961 19.56298828 C31.87552645 29.75468106 35.33230592 39.90793559 39 50 C42.57007871 40.06328091 45.98923693 30.12314539 49 20 C49.52558704 18.24986341 50.0516689 16.49987537 50.578125 14.75 C52.05686645 9.83474672 53.52814289 4.91734081 55 0 C62.26 0 69.52 0 77 0 C76.01 2.97 75.02 5.94 74 9 C73.67257812 10.01707031 73.34515625 11.03414063 73.0078125 12.08203125 C71.38810102 17.09166986 69.63771381 21.9725029 67.5625 26.8125 C65.64051874 31.30887818 64.00295858 35.84972479 62.5 40.5 C60.68882913 46.10337622 58.57625509 51.49770691 56.25 56.90625 C54.84232194 60.39025319 53.65507873 63.92679985 52.5 67.5 C50.34531229 74.16056249 47.76686143 80.57311485 45 87 C44.32819737 88.66460309 43.6599073 90.33064546 43 92 C42.34 92 41.68 92 41 92 C40.773125 92.5775 40.54625 93.155 40.3125 93.75 C37.67432186 98.2725911 34.04649738 100.26821401 29.07983398 101.60742188 C25.11550278 102.35570742 21.14512863 102.24589636 17.125 102.1875 C16.25875 102.18685547 15.3925 102.18621094 14.5 102.18554688 C8.14069283 102.14069283 8.14069283 102.14069283 7 101 C6.92674832 98.13732433 6.90761795 95.299281 6.9375 92.4375 C6.94201172 91.63119141 6.94652344 90.82488281 6.95117188 89.99414062 C6.96299482 87.99606244 6.98093086 85.99802217 7 84 C8.44632813 84.01740234 8.44632813 84.01740234 9.921875 84.03515625 C11.81679688 84.04869141 11.81679688 84.04869141 13.75 84.0625 C15.62945313 84.07990234 15.62945313 84.07990234 17.546875 84.09765625 C21.38707779 84.04308324 21.38707779 84.04308324 25 83 C28.28354319 73.14937043 23.96859224 64.63999883 20.3125 55.5625 C19.72792531 54.07738927 19.14502662 52.59161785 18.5637207 51.10522461 C17.34642665 47.99712727 16.12188311 44.89204129 14.89160156 41.7890625 C12.06622361 34.65165005 9.30612432 27.48919955 6.55673218 20.32223511 C5.6977501 18.08914708 4.83137587 15.85903262 3.96411133 13.62915039 C3.4380424 12.26459028 2.91223087 10.8999309 2.38671875 9.53515625 C1.92483154 8.342854 1.46294434 7.15055176 0.98706055 5.92211914 C0 3 0 3 0 0 Z " fill="#F18B5F" transform="translate(980,376)"/>
<path d="M0 0 C6.93 0 13.86 0 21 0 C21 7.26 21 14.52 21 22 C25.95 22 30.9 22 36 22 C36 26.62 36 31.24 36 36 C31.05 36 26.1 36 21 36 C21.09347898 41.92679536 21.19956058 47.85317951 21.31738281 53.77954102 C21.35569104 55.79607952 21.39054065 57.81268678 21.421875 59.8293457 C21.46748549 62.72632442 21.52548639 65.62282896 21.5859375 68.51953125 C21.59748871 69.42274612 21.60903992 70.325961 21.62094116 71.25654602 C21.64081085 72.09719101 21.66068054 72.937836 21.68115234 73.80395508 C21.69447601 74.54341873 21.70779968 75.28288239 21.7215271 76.04475403 C21.90214412 78.32104165 21.90214412 78.32104165 24 81 C26.88595946 81.58481121 26.88595946 81.58481121 30.125 81.6875 C32.06375 81.790625 34.0025 81.89375 36 82 C36 87.28 36 92.56 36 98 C32.35289248 98.13597335 28.71093729 98.2345895 25.0625 98.3125 C24.04091797 98.35439453 23.01933594 98.39628906 21.96679688 98.43945312 C14.88071654 98.5526493 9.62293099 97.50835506 4 93 C0.40989386 88.90379043 -0.12728567 85.38684168 -0.11352539 80.04785156 C-0.11344986 79.06713684 -0.11337433 78.08642212 -0.11329651 77.07598877 C-0.10813522 76.02481873 -0.10297394 74.97364868 -0.09765625 73.890625 C-0.0962413 72.80867859 -0.09482635 71.72673218 -0.09336853 70.61199951 C-0.08777318 67.1579715 -0.0752215 63.70400841 -0.0625 60.25 C-0.0574844 57.90755302 -0.0529216 55.56510502 -0.04882812 53.22265625 C-0.03780527 47.48174583 -0.02054379 41.74088392 0 36 C-4.29 36 -8.58 36 -13 36 C-13 31.38 -13 26.76 -13 22 C-8.71 22 -4.42 22 0 22 C0 14.74 0 7.48 0 0 Z " fill="#F18B5F" transform="translate(784,354)"/>
<path d="M0 0 C6.93 0 13.86 0 21 0 C21 7.26 21 14.52 21 22 C25.95 22 30.9 22 36 22 C36 26.62 36 31.24 36 36 C31.05 36 26.1 36 21 36 C21.33 50.52 21.66 65.04 22 80 C22.66 80 23.32 80 24 80 C24 80.66 24 81.32 24 82 C27.96 82 31.92 82 36 82 C36 87.28 36 92.56 36 98 C32.35289248 98.13597335 28.71093729 98.2345895 25.0625 98.3125 C24.04091797 98.35439453 23.01933594 98.39628906 21.96679688 98.43945312 C15.1516379 98.54832148 9.10087678 97.91298022 4 93 C-0.4171271 86.83494455 -0.53823928 80.86832876 -0.390625 73.5 C-0.38213531 71.88557007 -0.38213531 71.88557007 -0.37347412 70.23852539 C-0.35121234 66.82521735 -0.30103352 63.41298691 -0.25 60 C-0.22992189 57.67579649 -0.21167342 55.3515764 -0.1953125 53.02734375 C-0.15138073 47.35115186 -0.08242276 41.67575818 0 36 C-3.96 36 -7.92 36 -12 36 C-12 31.38 -12 26.76 -12 22 C-8.04 22 -4.08 22 0 22 C0 14.74 0 7.48 0 0 Z " fill="#F18B5E" transform="translate(420,354)"/>
<path d="M0 0 C6.6 0 13.2 0 20 0 C20 33.99 20 67.98 20 103 C13.4 103 6.8 103 0 103 C0 69.01 0 35.02 0 0 Z " fill="#F18A5D" transform="translate(952,348)"/>
<path d="M0 0 C6.6 0 13.2 0 20 0 C20 33.99 20 67.98 20 103 C13.4 103 6.8 103 0 103 C0 69.01 0 35.02 0 0 Z " fill="#F18A5D" transform="translate(914,348)"/>
<path d="M0 0 C0 6.6 0 13.2 0 20 C-2.18625 20.103125 -4.3725 20.20625 -6.625 20.3125 C-11.90323131 20.56147317 -15.38641991 21.42882141 -20 24 C-20.99 24.33 -21.98 24.66 -23 25 C-27.90189044 34.32122476 -26.56541855 46.9686682 -26.6875 57.1875 C-26.72072862 59.11265267 -26.75522325 61.03778392 -26.79101562 62.96289062 C-26.87762743 67.64194239 -26.93822872 72.32029337 -27 77 C-33.93 77 -40.86 77 -48 77 C-48 52.25 -48 27.5 -48 2 C-41.73 2 -35.46 2 -29 2 C-29 6.62 -29 11.24 -29 16 C-28.34 16 -27.68 16 -27 16 C-26.7525 15.278125 -26.505 14.55625 -26.25 13.8125 C-23.26401723 7.09403878 -18.57788309 3.88406341 -12 1 C-7.75815831 -0.15750755 -4.6342216 0 0 0 Z " fill="#F18B5F" transform="translate(514,374)"/>
<path d="M0 0 C3.88024303 0.5203179 5.04514665 2.30855893 7.55078125 5.2421875 C8.34097656 6.14710938 9.13117188 7.05203125 9.9453125 7.984375 C11.73828125 10.3671875 11.73828125 10.3671875 11.73828125 12.3671875 C16.17647376 13.0246975 18.50826267 13.21046711 22.28515625 10.62109375 C23.970364 9.18866716 25.62610574 7.72063588 27.24609375 6.21484375 C30.12289809 4.08204053 32.21048561 3.68929058 35.73828125 3.3671875 C37.03455025 6.98272697 36.72872976 8.39151921 35.296875 12.0390625 C34.60422497 13.40582126 33.89664124 14.76509488 33.17578125 16.1171875 C32.83998047 16.78234375 32.50417969 17.4475 32.15820312 18.1328125 C31.46863339 19.46829206 30.75447043 20.79140677 30.0144043 22.09957886 C29.16135899 23.61539892 28.34298422 25.15123969 27.55993652 26.70437622 C24.10812613 32.85312302 24.10812613 32.85312302 20.47364807 34.21704102 C17.72456932 34.55924682 15.10581396 34.61543568 12.3359375 34.5625 C11.34001083 34.57111053 10.34408417 34.57972107 9.31797791 34.58859253 C7.21754828 34.59470061 5.11694626 34.57820453 3.0168457 34.54052734 C-0.18863934 34.49234652 -3.38275965 34.54003924 -6.58789062 34.59765625 C-8.63413949 34.59170765 -10.68038131 34.5801738 -12.7265625 34.5625 C-13.67780502 34.58071808 -14.62904755 34.59893616 -15.6091156 34.6177063 C-19.74863542 34.48737544 -22.26845824 34.27646213 -25.39311218 31.41601562 C-27.19573913 29.13657868 -28.7669407 26.85760095 -30.26171875 24.3671875 C-30.65310028 23.72159882 -31.04448181 23.07601013 -31.44772339 22.41085815 C-32.4307502 20.68212708 -33.31785668 18.89989717 -34.19921875 17.1171875 C-34.78574219 15.95703125 -35.37226563 14.796875 -35.9765625 13.6015625 C-37.20056999 10.52108163 -37.64853436 8.62834066 -37.26171875 5.3671875 C-36.26171875 4.3671875 -36.26171875 4.3671875 -33.640625 4.01953125 C-28.54769305 4.5435439 -25.43140447 7.29819761 -21.38476562 10.25585938 C-18.74214028 12.0938299 -16.8538539 13.34031167 -13.59375 13.48828125 C-10.33716114 11.92271843 -9.02162858 9.84369519 -7.01171875 6.8671875 C-6.3259375 5.866875 -5.64015625 4.8665625 -4.93359375 3.8359375 C-4.381875 3.02125 -3.83015625 2.2065625 -3.26171875 1.3671875 C-2.26171875 0.3671875 -2.26171875 0.3671875 0 0 Z " fill="#F18A5E" transform="translate(262.26171875,335.6328125)"/>
<path d="M0 0 C4.82048478 2.96645217 6.77718645 7.0543729 9.25 12 C10.16272406 21.44611633 11.12461275 32.97848728 5.859375 41.24609375 C1.86899993 45.59482774 -2.48833385 47.16265477 -8.3125 47.5 C-13.11870557 47.25140316 -15.89402757 45.87307749 -19.75 43 C-24.98078501 36.49686188 -26.11150345 30.20943459 -26.125 22.125 C-26.14949219 21.36058594 -26.17398438 20.59617187 -26.19921875 19.80859375 C-26.23411071 12.95813821 -24.12849182 7.91557062 -19.8125 2.625 C-13.79102139 -2.11919527 -7.1385881 -1.90362349 0 0 Z " fill="#FEFDFC" transform="translate(649.75,391)"/>
<path d="M0 0 C2.31 0 4.62 0 7 0 C7 1.98 7 3.96 7 6 C9.97 6.33 12.94 6.66 16 7 C16.95904856 10.83619425 16.91892116 12.32431536 16 16 C15.16855469 15.75636719 15.16855469 15.75636719 14.3203125 15.5078125 C11.77480661 14.95071525 9.47882312 14.86722739 6.875 14.875 C6.00617188 14.87242187 5.13734375 14.86984375 4.2421875 14.8671875 C1.96280551 14.85462066 1.96280551 14.85462066 0 16 C-0.02400319 17.91015383 -0.02400319 17.91015383 1 20 C3.2765395 21.31644652 5.41492951 22.39895439 7.8125 23.4375 C12.61291949 25.52570705 16.19057253 27.40086318 19 32 C19.98798586 36.64934524 19.6681352 40.74390583 17.4375 44.9375 C15 47 15 47 11.3125 48.375 C10.219375 48.91125 9.12625 49.4475 8 50 C6.9384058 53.58863524 6.9384058 53.58863524 7 57 C4.69 57 2.38 57 0 57 C0 54.69 0 52.38 0 50 C-1.051875 50.04125 -2.10375 50.0825 -3.1875 50.125 C-6.74010173 50.00852125 -8.84866641 49.52791932 -12 48 C-11.125 42.25 -11.125 42.25 -10 40 C-9.29488281 40.16371094 -8.58976563 40.32742188 -7.86328125 40.49609375 C-4.90341312 41.01699824 -2.18938727 41.09866732 0.8125 41.0625 C1.78832031 41.05347656 2.76414062 41.04445313 3.76953125 41.03515625 C4.50558594 41.02355469 5.24164063 41.01195312 6 41 C6.33 39.35 6.66 37.7 7 36 C3.80171157 33.73779599 1.09402956 32.03794175 -2.5625 30.5625 C-6.48115369 28.78129378 -8.51730124 27.5359649 -11 24 C-11.9162736 19.12124497 -11.76662068 15.31420688 -9.25 11 C-6.08533679 8.18696603 -4.26554773 7 0 7 C0 4.69 0 2.38 0 0 Z " fill="#FEFAF9" transform="translate(259,402)"/>
<path d="M0 0 C0.37712874 8.50634822 0.18205728 14.09432836 -4.5 21.3125 C-9.86940829 24.9368506 -16.69353157 25.51151212 -23 24.5 C-26.32740843 23.5714209 -26.88495046 23.15339939 -29.0625 20.25 C-30.05843885 16.79741198 -30.60458077 14.55191202 -30 11 C-25.21725083 3.90833743 -16.25690162 3.42754786 -8.4375 1.875 C-7.22900391 1.65457031 -7.22900391 1.65457031 -5.99609375 1.4296875 C-3.76354109 0.94909886 -2.3025911 0 0 0 Z " fill="#FEFBFA" transform="translate(877,415)"/>
<path d="M0 0 C0.08139142 2.39652528 0.14067009 4.79025436 0.1875 7.1875 C0.21263672 7.86103516 0.23777344 8.53457031 0.26367188 9.22851562 C0.32937912 13.71851082 -0.25583777 16.43388352 -3 20 C-8.12759432 24.29286966 -12.91827901 25.31143001 -19.40625 24.81640625 C-23.61011716 24.15443366 -25.44326463 23.74231382 -28.0625 20.25 C-29.05843885 16.79741198 -29.60458077 14.55191202 -29 11 C-24.04940317 4.77639256 -18.24365062 3.70852938 -10.8125 2.4375 C-7.38275699 1.84195246 -3.24774214 0 0 0 Z " fill="#FEFCFB" transform="translate(569,415)"/>
<path d="M0 0 C5.26319913 5.0239628 4.97413926 5.79311411 6 14 C-4.89 14 -15.78 14 -27 14 C-25.96263483 6.73844382 -25.10181256 4.62664375 -20 0 C-14.6861848 -3.39493749 -5.33436729 -3.35303086 0 0 Z " fill="#FEFBF9" transform="translate(739,392)"/>
<path d="M0 0 C1 2.6875 1 2.6875 1 5 C-6.5188462 9.02170843 -13.53414267 9.82306946 -22 9 C-25.19521215 7.97232643 -28.08152619 6.65085387 -31 5 C-31 3.68 -31 2.36 -31 1 C-21.57296666 -4.16242302 -9.65101015 -5.1829499 0 0 Z " fill="#FEF9F6" transform="translate(356,400)"/>
<path d="M0 0 C0.79019531 -0.020625 1.58039063 -0.04125 2.39453125 -0.0625 C7.41448096 -0.09591065 10.72573739 0.5623476 15.125 3.25 C15.125 5.5625 15.125 5.5625 14.125 8.25 C6.66998188 12.57391051 -3.073611 12.50681583 -11.36328125 10.7109375 C-13.25 10 -13.25 10 -15.875 8.25 C-16.8125 6.0625 -16.8125 6.0625 -16.875 4.25 C-11.55350153 -0.12123089 -6.62787241 0.04282955 0 0 Z " fill="#FEFBF9" transform="translate(304.875,415.75)"/>
<path d="M0 0 C0.70703125 2.109375 0.70703125 2.109375 1 4 C-4.90324911 9.19029632 -13.873271 9.35709047 -21.4375 8.875 C-25.87726438 8.28834272 -28.55294283 6.81207296 -32 4 C-31.0295043 1.4746241 -30.46596787 0.24876372 -28.0390625 -1.046875 C-18.56633944 -3.80592055 -8.95156557 -4.72912898 0 0 Z " fill="#FEFAF9" transform="translate(343,441)"/>
<path d="M0 0 C1.19109375 0.24363281 1.19109375 0.24363281 2.40625 0.4921875 C6.80052097 1.11311709 11.06910557 1.14567291 15.5 1.125 C16.32886719 1.12886719 17.15773438 1.13273437 18.01171875 1.13671875 C22.45452576 1.12965546 26.62702514 0.89447213 31 0 C31.495 1.98 31.495 1.98 32 4 C23.44411915 8.47239226 14.95698214 9.30686522 5.4375 7.1875 C2.37671754 6.13013879 0.87382764 5.57651301 -1 3 C-0.67 2.01 -0.34 1.02 0 0 Z " fill="#FEF6F3" transform="translate(312,451)"/>
<path d="M0 0 C1.20849609 0.48726563 1.20849609 0.48726563 2.44140625 0.984375 C6.72542486 2.20703673 10.51180221 2.29407334 14.9375 2.25 C15.71029297 2.25773437 16.48308594 2.26546875 17.27929688 2.2734375 C22.22290235 2.25672201 26.31180873 1.57313475 31 0 C31.495 1.98 31.495 1.98 32 4 C23.87340504 8.34678335 14.76179132 9.54037457 5.66796875 7.46875 C2.85522501 6.3791819 1.22687403 5.34524309 -0.4375 2.8125 C-0.623125 2.214375 -0.80875 1.61625 -1 1 C-0.67 0.67 -0.34 0.34 0 0 Z " fill="#FEF4F0" transform="translate(312,467)"/>
<path d="M0 0 C0.79535156 0.32613281 1.59070313 0.65226562 2.41015625 0.98828125 C6.8602207 2.24243434 10.84331774 2.25574821 15.4375 2.1875 C16.66823242 2.1865332 16.66823242 2.1865332 17.92382812 2.18554688 C22.7124529 2.15115133 27.27772837 1.79446023 32 1 C31.70703125 2.890625 31.70703125 2.890625 31 5 C22.42347168 9.53099609 12.97343841 8.76310117 3.7421875 6.6328125 C2 6 2 6 0 4 C0 2.68 0 1.36 0 0 Z " fill="#FEF6F2" transform="translate(325,417)"/>
<path d="M0 0 C7.625 0.875 7.625 0.875 11 2 C18.48304591 2.61057111 25.67067008 1.41045524 33 0 C32.69140625 1.890625 32.69140625 1.890625 32 4 C26.79941408 6.97176338 21.85174538 7.30148884 15.9375 7.375 C15.26517334 7.38885742 14.59284668 7.40271484 13.90014648 7.41699219 C8.84764884 7.37006688 5.39588053 6.31568707 1 4 C0.0625 1.8125 0.0625 1.8125 0 0 Z " fill="#FEF8F5" transform="translate(311,476)"/>
<path d="M0 0 C0.58265625 0.144375 1.1653125 0.28875 1.765625 0.4375 C12.10660698 2.77885441 21.72369891 2.54634009 32 0 C32 1.32 32 2.64 32 4 C23.59249391 8.11796216 14.21353981 8.21454793 5.16015625 6.10546875 C2 5 2 5 0 3 C0 2.01 0 1.02 0 0 Z " fill="#FEFAF8" transform="translate(325,426)"/>
<path d="M0 0 C1.216875 0.33 2.43375 0.66 3.6875 1 C13.18270286 3.090139 22.63548085 2.36755337 32 0 C32 1.32 32 2.64 32 4 C23.59249391 8.11796216 14.21353981 8.21454793 5.16015625 6.10546875 C2 5 2 5 0 3 C0 2.01 0 1.02 0 0 Z " fill="#FEFBF9" transform="translate(288,428)"/>
<path d="M0 0 C1.69769531 0.24363281 1.69769531 0.24363281 3.4296875 0.4921875 C8.00760091 1.06266284 12.51656595 1.14831417 17.125 1.125 C17.89714844 1.12886719 18.66929687 1.13273437 19.46484375 1.13671875 C23.75458452 1.12941084 27.77562287 0.85027399 32 0 C32 0.99 32 1.98 32 3 C22.28809136 7.75263614 13.4906381 7.48462481 3 5 C2.01 4.34 1.02 3.68 0 3 C0 2.01 0 1.02 0 0 Z " fill="#FEF4F0" transform="translate(325,410)"/>
<path d="M0 0 C1.2375 0.33 2.475 0.66 3.75 1 C13.30938151 3.09766992 22.53152598 2.08753758 32 0 C31.375 1.875 31.375 1.875 30 4 C25.11974681 6.34341426 20.30086291 6.33436825 15 6.3125 C14.21882813 6.32861328 13.43765625 6.34472656 12.6328125 6.36132812 C7.66180322 6.36551248 4.35668553 5.64612791 0 3 C0 2.01 0 1.02 0 0 Z " fill="#FEF5F2" transform="translate(312,460)"/>
<path d="M0 0 C1.48693359 0.47566406 1.48693359 0.47566406 3.00390625 0.9609375 C6.96904605 2.09383459 10.81618284 2.406169 14.9375 2.625 C15.62134766 2.66367187 16.30519531 2.70234375 17.00976562 2.7421875 C18.67279513 2.83522412 20.33635847 2.91863787 22 3 C21.34 4.65 20.68 6.3 20 8 C13.00940474 8.34695969 7.26033042 8.3620293 1 5 C0 2.3125 0 2.3125 0 0 Z " fill="#FDF1EC" transform="translate(288,436)"/>
<path d="M0 0 C1.24136719 0.47566406 1.24136719 0.47566406 2.5078125 0.9609375 C6.31847819 2.09475973 9.93226312 2.44161689 13.875 2.625 C14.56335938 2.66367187 15.25171875 2.70234375 15.9609375 2.7421875 C17.64023246 2.83548166 19.32007767 2.91878238 21 3 C20.67 4.65 20.34 6.3 20 8 C13.79277259 8.19705484 7.93145185 8.03149091 2 6 C1.34 5.34 0.68 4.68 0 4 C0 2.68 0 1.36 0 0 Z " fill="#FEF3EE" transform="translate(288,461)"/>
<path d="M0 0 C5.75 0.875 5.75 0.875 8 2 C10.204364 2.22950319 12.41392173 2.41075933 14.625 2.5625 C15.81351562 2.64628906 17.00203125 2.73007812 18.2265625 2.81640625 C19.59941406 2.90728516 19.59941406 2.90728516 21 3 C20.34 4.32 19.68 5.64 19 7 C5.18223235 7.55353075 5.18223235 7.55353075 0 4 C0 2.68 0 1.36 0 0 Z " fill="#FEF6F3" transform="translate(288,453)"/>
<path d="M0 0 C0.82757813 0.14308594 1.65515625 0.28617187 2.5078125 0.43359375 C6.28855588 1.04680157 10.0776737 1.56575673 13.875 2.0625 C14.56335938 2.15337891 15.25171875 2.24425781 15.9609375 2.33789062 C17.64050563 2.55950031 19.32023621 2.77987828 21 3 C20.67 4.32 20.34 5.64 20 7 C13.61830956 7.23539022 8.10422469 6.96207222 2 5 C1.34 4.34 0.68 3.68 0 3 C0 2.01 0 1.02 0 0 Z " fill="#FEF8F6" transform="translate(288,445)"/>
<path d="M0 0 C0.59425781 0.13277344 1.18851562 0.26554687 1.80078125 0.40234375 C8.18510825 1.76261249 14.49213554 2.5298501 21 3 C20.34 4.32 19.68 5.64 19 7 C12.93233264 7.21975455 7.72184417 7.14569156 2 5 C1.34 4.34 0.68 3.68 0 3 C0 2.01 0 1.02 0 0 Z " fill="#FEF9F7" transform="translate(288,470)"/>
<path d="M0 0 C-0.1875 1.875 -0.1875 1.875 -1 4 C-4.29454588 5.83030327 -7.2594857 6.59060752 -11 6 C-12.6484375 3.9765625 -12.6484375 3.9765625 -14 2 C-12.4176994 1.66179834 -10.83410625 1.32964061 -9.25 1 C-8.36828125 0.814375 -7.4865625 0.62875 -6.578125 0.4375 C-4 0 -4 0 0 0 Z " fill="#FEF6F2" transform="translate(357,435)"/>
<path d="M0 0 C-0.21484375 1.890625 -0.21484375 1.890625 -1 4 C-3.06640625 5.046875 -3.06640625 5.046875 -5.5625 5.75 C-6.80193359 6.11351562 -6.80193359 6.11351562 -8.06640625 6.484375 C-9.02353516 6.73960937 -9.02353516 6.73960937 -10 7 C-10.33 6.01 -10.66 5.02 -11 4 C-10 2 -10 2 -6.625 0.875 C-3 0 -3 0 0 0 Z " fill="#FEF6F2" transform="translate(357,468)"/>
<path d="M0 0 C-0.25390625 1.890625 -0.25390625 1.890625 -1 4 C-2.77734375 5.046875 -2.77734375 5.046875 -4.9375 5.75 C-6.00291016 6.11351562 -6.00291016 6.11351562 -7.08984375 6.484375 C-9 7 -9 7 -11 7 C-10.67 5.35 -10.34 3.7 -10 2 C-3.375 0 -3.375 0 0 0 Z " fill="#FEF6F2" transform="translate(357,443)"/>
<path d="M0 0 C-0.1875 1.875 -0.1875 1.875 -1 4 C-4.37823976 5.87679987 -7.17632299 6.21849583 -11 6 C-10.875 4.125 -10.875 4.125 -10 2 C-6.40349908 0.40155515 -3.96602757 0 0 0 Z " fill="#FEF6F2" transform="translate(357,460)"/>
<path d="M0 0 C0 1.32 0 2.64 0 4 C-6.625 7 -6.625 7 -10 7 C-9.67 5.35 -9.34 3.7 -9 2 C-2.25 0 -2.25 0 0 0 Z " fill="#FEF5F1" transform="translate(357,451)"/>
</svg>
